<svg width="32" height="32" xmlns="http://www.w3.org/2000/svg">
 <g>
  <title>Layer 1</title>
  <path d="m22.51632,20.00242c-0.5,0 -0.8,0.12247 -1.1,0.12247l-1.8,0c0.4,-5.26633 0.7,-10.41019 1.1,-15.67653c1.2,0 2.2,-0.12247 3.2,0c0.3,0 0.7,0.61236 0.6,0.97978c-0.3,2.81688 -0.8,5.75623 -1.2,8.5731c-0.2,1.95957 -0.5,3.91913 -0.8,6.00117zm0.4,4.89892c0.1,1.3472 -0.8,2.57193 -2.1,2.6944c-1.3,0.12247 -2.5,-0.85731 -2.6,-2.20451c-0.1,-1.46967 0.8,-2.57193 2.2,-2.6944c1.4,-0.12247 2.4,0.73484 2.5,2.20451z" fill-rule="evenodd" clip-rule="evenodd" fill="#9f74b3" id="svg_1"/>
 </g>

</svg>